<svg xmlns="http://www.w3.org/2000/svg" width="31.5" height="31.5" viewBox="0 0 31.5 31.5">
    <path d="M28.125 0H3.375A3.376 3.376 0 0 0 0 3.375v24.75A3.376 3.376 0 0 0 3.375 31.5h24.75a3.376 3.376 0 0 0 3.375-3.375V3.375A3.376 3.376 0 0 0 28.125 0zm-2.25 17.719a.846.846 0 0 1-.844.844h-6.468v6.469a.846.846 0 0 1-.844.844h-3.938a.846.846 0 0 1-.844-.844v-6.469H6.469a.846.846 0 0 1-.844-.844v-3.938a.846.846 0 0 1 .844-.844h6.469V6.469a.846.846 0 0 1 .844-.844h3.938a.846.846 0 0 1 .844.844v6.469h6.469a.846.846 0 0 1 .844.844z" data-name="Icon awesome-plus-square"/>
</svg>
